<svg xmlns="http://www.w3.org/2000/svg" width="160" height="160" viewBox="0 0 160 160" role="img" aria-label="Paperloom">
  <defs>
    <linearGradient id="background" x1="0" y1="0" x2="1" y2="1">
      <stop offset="0" stop-color="#ff563c"/>
      <stop offset="1" stop-color="#ae1800"/>
    </linearGradient>
  </defs>
  <rect x="4" y="4" width="152" height="152" rx="34" fill="url(#background)"/>
  <!-- 논문 한 장 -->
  <path d="M50 30h44l24 24v76a6 6 0 0 1-6 6H50a6 6 0 0 1-6-6V36a6 6 0 0 1 6-6z" fill="#ffffff"/>
  <path d="M94 30v18a6 6 0 0 0 6 6h18z" fill="#ffc4b8"/>
  <!-- 글줄과 그 사이를 위·아래로 지나는 실(근거를 엮는다) -->
  <g fill="none" stroke-linecap="round" stroke-width="7">
    <path d="M58 72h44" stroke="#ec3013"/>
    <path d="M58 108h30" stroke="#ec3013"/>
    <path d="M80 62v56" stroke="#ffffff" stroke-width="13"/>
    <path d="M80 62v56" stroke="#7c1405"/>
    <path d="M58 90h44" stroke="#ffffff" stroke-width="13"/>
    <path d="M58 90h44" stroke="#ec3013"/>
  </g>
</svg>
